<svg width="95" height="94" viewBox="0 0 95 94" fill="none" xmlns="http://www.w3.org/2000/svg">
<g id="Group 1000005612">
<circle id="Ellipse 3209" cx="47.3516" cy="47" r="46" fill="#165E4C" stroke="#301703" stroke-opacity="0.87" stroke-width="2"/>
<g id="Group">
<g id="Group_2">
<path id="Vector" d="M70.2405 62.8492C70.2405 62.8492 70.6147 63.2235 70.989 63.2235C71.3632 62.8492 71.3632 62.4749 71.7374 62.1006C70.989 62.4749 70.6147 62.4749 70.2405 62.8492ZM65.0012 68.4639C65.0012 68.4639 64.627 68.4639 64.2528 68.4639C63.8785 68.0896 63.1301 67.7153 62.3816 67.341C62.0074 67.341 62.0074 66.9667 61.6331 66.9667H59.0135C59.0135 66.9667 59.3877 66.9667 59.3877 67.341C59.0135 67.7153 58.265 68.0896 57.8908 68.8383C56.3939 69.9612 54.8969 71.0841 53.0258 72.2071C52.6515 72.2071 52.6515 72.2071 52.2773 72.2071C51.9031 72.2071 51.5288 71.8328 51.5288 71.8328C51.1546 71.8328 51.1546 71.4585 51.5288 71.4585C51.5288 71.0841 51.9031 71.0841 51.9031 70.7098C52.6515 69.5869 53.4 68.4639 54.1485 67.341H53.0258C52.2773 68.8383 51.5288 69.9612 50.4061 71.0841C50.4061 71.0841 50.0319 71.0841 49.6577 71.0841C48.9092 71.0841 48.535 70.7098 47.7865 70.7098C47.4123 70.7098 47.4123 70.7098 47.4123 70.3355V66.9667H46.6638V67.7153V70.3355C46.6638 70.7098 46.6638 70.7098 46.2896 70.7098C45.5411 70.7098 45.1669 70.7098 44.4184 71.0841H44.0442C42.9215 69.9612 42.173 68.4639 41.4245 66.9667H40.3018C41.0503 68.4639 42.173 69.5869 42.9215 71.0841C42.9215 71.0841 42.9215 71.0841 42.9215 71.4585C42.5472 71.8328 41.7988 71.8328 41.4245 72.2071H41.0503C38.8049 71.0841 36.5595 69.5869 34.6884 67.341H35.0626H32.8172C32.0687 67.7153 30.946 68.4639 30.1976 68.8383C29.8233 68.8383 29.8233 68.8383 29.4491 68.8383C29.0749 68.4639 28.3264 68.0896 27.9522 67.341H26.4552C31.3203 72.2071 39.5534 76.6989 49.2834 75.9502C56.7681 75.5759 62.7558 72.5814 67.6209 67.341H66.4982C66.1239 67.341 65.3755 68.0896 65.0012 68.4639ZM40.3018 72.9557C39.9276 73.33 39.5534 73.7043 39.1791 73.33C36.1853 72.5814 33.5657 71.0841 31.3203 69.5869C30.946 69.2126 30.946 69.2126 31.3203 69.2126C32.0687 68.8383 32.8172 68.4639 33.5657 68.0896H33.9399C35.8111 69.5869 37.6822 71.0841 40.3018 72.9557C39.9276 72.9557 39.9276 72.5814 40.3018 72.9557ZM41.0503 73.7043C42.9215 72.2071 45.1669 71.8328 47.4123 71.8328C49.6577 71.8328 51.5288 72.2071 53.4 73.7043C49.2834 74.8273 45.1669 74.8273 41.0503 73.7043ZM63.1301 69.5869C60.5104 71.4585 57.8908 72.5814 54.8969 73.33C54.5227 73.33 54.1485 72.9557 53.7742 72.9557L54.1485 72.5814C56.3939 71.4585 58.265 69.5869 60.1362 68.0896C60.5104 67.7153 60.5104 67.7153 60.8847 68.0896C61.6331 68.4639 62.3816 68.8383 63.1301 69.2126C63.5043 69.2126 63.5043 69.2126 63.1301 69.5869C63.5043 69.5869 63.5043 69.5869 63.1301 69.5869ZM56.3939 62.4749C55.6454 62.4749 55.6454 62.4749 55.2712 62.8492C55.2712 62.8492 55.2712 63.2235 54.8969 63.2235H56.0196C56.0196 63.2235 56.3939 62.8492 56.3939 62.4749ZM46.6638 62.8492C46.6638 63.2235 46.6638 63.2235 46.6638 62.8492C47.038 62.8492 47.038 62.8492 47.4123 62.4749C47.038 62.4749 46.6638 62.4749 46.6638 62.8492ZM39.1791 63.5978C39.1791 63.2235 39.1791 63.2235 39.1791 62.8492C38.8049 62.4749 38.8049 62.4749 38.0565 62.4749C38.0565 62.8492 38.4307 63.2235 38.4307 63.5978C38.8049 63.5978 39.1791 63.5978 39.1791 63.5978ZM22.7129 62.4749C23.0871 62.8492 23.0871 63.2235 23.4614 63.5978V62.4749C23.4614 62.4749 23.0871 62.4749 22.7129 62.4749Z" fill="white"/>
</g>
<g id="Group_3">
<path id="Vector_2" d="M23.0873 31.4067C22.7131 31.4067 22.7131 31.4067 23.0873 31.4067C23.4615 31.781 23.8358 31.781 23.8358 31.4067H23.0873ZM30.1977 31.4067C29.8235 31.4067 29.8235 31.781 29.4493 31.781C30.1977 31.781 30.1977 31.781 30.1977 31.4067C30.572 31.4067 30.572 31.4067 30.1977 31.4067ZM38.0566 31.4067C37.6824 31.4067 37.6824 31.4067 38.0566 31.4067C38.4309 31.781 38.8051 31.781 38.8051 31.4067C38.8051 31.0323 38.4309 31.0323 38.0566 31.4067ZM64.253 31.0323C63.8787 31.0323 63.5045 31.0323 63.1303 31.0323C63.5045 31.4067 63.8787 31.4067 64.253 31.4067C64.6272 31.4067 64.6272 31.4067 64.253 31.0323ZM45.5413 18.68C38.0566 19.0543 31.6947 22.0488 26.4554 26.9149H27.5781C28.3266 26.5406 29.075 26.1662 29.4493 25.7919H29.8235C30.572 26.1662 31.6947 26.5406 32.4431 27.2892H35.0628C34.6885 27.2892 35.0628 26.9149 35.0628 26.9149C36.9339 25.0433 38.8051 23.546 41.4247 22.4231H41.799C42.1732 22.4231 42.5474 22.4231 42.9217 22.7974C42.9217 22.7974 42.9217 23.1717 42.5474 23.1717C41.799 24.2947 41.0505 25.7919 40.302 27.2892H41.4247C42.1732 26.1662 43.2959 24.669 44.0444 23.546C44.0444 23.1717 44.4186 23.1717 44.7928 23.1717C45.1671 23.1717 45.9155 23.1717 46.2898 23.546C46.664 23.546 46.664 23.546 46.664 23.9204C46.664 25.0433 46.664 26.1662 46.664 27.2892H47.7867V23.9204C47.7867 23.546 47.7867 23.546 48.1609 23.546C48.5352 23.546 49.2836 23.546 49.6579 23.1717C50.0321 23.1717 50.0321 23.1717 50.4063 23.546C51.1548 24.669 52.2775 26.1662 53.026 27.2892H54.1487C53.026 25.7919 52.2775 24.2947 51.1548 22.7974C51.529 22.4231 52.2775 22.0488 52.6517 22.0488C52.6517 22.0488 52.6517 22.0488 53.026 22.0488C55.2714 23.1717 57.5168 24.669 59.3879 26.5406V26.9149H62.0076C62.0076 26.9149 62.0076 26.9149 62.3818 26.9149C63.1303 26.5406 63.8787 26.1662 64.6272 25.7919C65.0014 25.7919 65.0014 25.7919 65.3757 25.7919C65.7499 26.1662 66.4984 26.5406 66.8726 26.9149H68.3695C62.756 22.4231 55.2714 18.3056 45.5413 18.68ZM39.9278 21.6745C37.6824 22.7974 35.8112 24.669 33.5658 26.1662H33.1916C32.4431 25.7919 31.6947 25.4176 30.572 25.0433C30.572 25.0433 30.9462 25.0433 30.9462 24.669C33.1916 23.1717 35.437 22.0488 37.6824 21.3002C38.0566 21.3002 38.4309 21.3002 38.4309 20.9258C39.1793 20.5515 39.1793 21.3002 39.9278 21.3002V21.6745ZM47.0382 22.4231C44.7928 22.4231 42.5474 21.6745 40.6763 20.5515C44.7928 19.4286 48.9094 19.4286 53.026 20.5515C51.529 21.6745 49.2836 22.4231 47.0382 22.4231ZM63.1303 25.0433L60.8849 26.1662C60.5106 26.1662 60.5106 26.1662 60.5106 26.1662C58.6395 24.2947 56.7683 22.7974 54.1487 21.3002C54.1487 21.3002 54.1487 21.3002 53.7744 21.3002C54.1487 20.9258 54.5229 20.5515 54.8971 20.9258C57.891 21.6745 60.5106 23.1717 62.756 24.669C63.1303 24.669 63.5045 24.669 63.1303 25.0433Z" fill="white"/>
</g>
<g id="Group_4">
<path id="Vector_3" d="M21.2161 62.1006L21.9646 61.7262C23.0873 60.9776 23.8357 59.8547 23.8357 58.7317C23.8357 57.6088 23.0873 56.4858 21.2161 56.4858C20.4676 56.4858 19.3449 56.8602 18.9707 57.2345L19.3449 58.3574C19.7192 57.9831 20.0934 57.6088 20.8419 57.6088C21.5903 57.6088 21.9646 57.9831 21.9646 58.7317C21.9646 59.4804 21.2161 60.229 19.7192 61.7262L18.9707 62.4749V63.5978H23.8357V62.1006H21.2161Z" fill="white"/>
<path id="Vector_4" d="M27.2036 62.1006L27.5778 61.7262C28.7005 60.9776 29.449 59.8547 29.449 58.7317C29.449 57.6088 28.7005 56.4858 26.8294 56.4858C25.7067 56.4858 24.9582 56.8602 24.584 57.2345L24.9582 58.3574C25.3325 57.9831 25.7067 57.6088 26.4552 57.6088C27.2036 57.6088 27.5778 57.9831 27.5778 58.7317C27.5778 59.4804 26.8294 60.229 25.3325 61.7262L24.584 62.4749V63.5978H29.449V62.1006H27.2036Z" fill="white"/>
<path id="Vector_5" d="M33.1919 56.4858C31.3207 56.4858 30.5723 57.9831 30.5723 60.229C30.5723 62.1006 31.3207 63.9721 33.1919 63.9721C35.0631 63.9721 35.8115 62.4749 35.8115 60.229C35.8115 57.9831 35.4373 56.4858 33.1919 56.4858ZM33.1919 62.4749C32.4434 62.4749 32.0692 61.7262 32.0692 60.229C32.0692 58.7317 32.4434 57.9831 33.1919 57.9831C33.9404 57.9831 34.3146 58.7317 34.3146 60.229C34.3146 61.7262 33.9404 62.4749 33.1919 62.4749Z" fill="white"/>
<path id="Vector_6" d="M39.1802 56.4858C37.309 56.4858 36.5605 57.9831 36.5605 60.229C36.5605 61.7262 36.9348 63.2235 38.4317 63.5978C38.8059 63.5978 38.8059 63.5978 39.1802 63.5978H39.5544C41.0513 63.5978 42.174 62.1006 42.174 59.8547C42.174 57.9831 41.4256 56.4858 39.1802 56.4858ZM39.1802 62.4749C38.4317 62.4749 38.0575 61.7262 38.0575 60.229C38.0575 58.7317 38.4317 57.9831 39.1802 57.9831C39.9286 57.9831 40.3029 58.7317 40.3029 60.229C40.3029 61.7262 39.9286 62.4749 39.1802 62.4749Z" fill="white"/>
<path id="Vector_7" d="M45.5415 56.4858C43.6703 56.4858 42.9219 57.9831 42.9219 60.229C42.9219 62.1006 43.6703 63.5978 45.1673 63.9721H45.5415C45.9157 63.9721 45.9157 63.9721 46.29 63.9721C46.29 63.9721 46.6642 63.9721 46.6642 63.5978C47.0384 63.2235 47.0384 63.2235 47.4127 62.8492C47.7869 62.1006 47.7869 61.3519 47.7869 60.229C48.1611 57.9831 47.4127 56.4858 45.5415 56.4858ZM45.5415 62.4749C44.793 62.4749 44.4188 61.7262 44.4188 60.229C44.4188 58.7317 44.793 57.9831 45.5415 57.9831C46.29 57.9831 46.6642 58.7317 46.6642 60.229C46.6642 61.7262 45.9157 62.4749 45.5415 62.4749Z" fill="white"/>
<path id="Vector_8" d="M50.0329 58.3574C49.6586 58.3574 48.9102 58.7317 48.9102 59.4804C48.9102 59.8547 49.2844 60.6033 50.0329 60.6033C50.4071 60.6033 51.1556 60.229 51.1556 59.4804C50.7813 58.7317 50.4071 58.3574 50.0329 58.3574ZM50.0329 61.7263C49.6586 61.7263 48.9102 62.1006 48.9102 62.8492C48.9102 63.2235 49.2844 63.5978 50.0329 63.5978C50.4071 63.5978 51.1556 63.2235 51.1556 62.4749C50.7813 62.1006 50.4071 61.7263 50.0329 61.7263Z" fill="white"/>
<path id="Vector_9" d="M54.1477 62.1006L54.8962 61.7262C56.0189 60.9776 56.7674 59.8547 56.7674 58.7317C56.7674 57.6088 56.0189 56.4858 54.1477 56.4858C53.025 56.4858 52.2766 56.8602 51.9023 57.2345L52.2766 58.3574C52.6508 57.9831 53.025 57.6088 53.7735 57.6088C54.522 57.6088 54.8962 57.9831 54.8962 58.7317C54.8962 59.4804 54.1477 60.229 52.6508 61.7262L51.9023 62.4749V63.5978H56.7674V62.1006H54.1477Z" fill="white"/>
<path id="Vector_10" d="M60.1372 56.4858C58.266 56.4858 57.5176 57.9831 57.5176 60.229C57.5176 62.1006 58.266 63.9721 60.1372 63.9721C62.0084 63.9721 62.7568 62.4749 62.7568 60.229C62.7568 57.9831 62.0084 56.4858 60.1372 56.4858ZM60.1372 62.4749C59.3887 62.4749 59.0145 61.7262 59.0145 60.229C59.0145 58.7317 59.3887 57.9831 60.1372 57.9831C60.8857 57.9831 61.2599 58.7317 61.2599 60.229C61.2599 61.7262 60.8857 62.4749 60.1372 62.4749Z" fill="white"/>
<path id="Vector_11" d="M66.1251 56.4858L64.2539 57.2345L64.6281 58.3574L66.1251 57.6088V63.5978H67.622V56.4858H66.1251Z" fill="white"/>
<path id="Vector_12" d="M73.6095 59.8547C74.358 59.4804 74.7322 58.7317 74.7322 58.3574C74.7322 57.6088 73.9838 56.4858 72.4868 56.4858C70.9899 56.4858 69.8672 57.2345 69.8672 58.3574C69.8672 59.106 70.2414 59.4804 70.9899 59.8547C70.2414 60.229 69.8672 60.6033 69.8672 61.7262C69.8672 62.1006 69.8672 62.4749 70.2414 62.8492C70.2414 62.8492 70.6157 63.2235 70.9899 63.2235C71.3641 63.2235 71.7384 63.5978 72.1126 63.5978C73.6095 63.5978 74.7322 62.8492 74.7322 61.3519C74.7322 60.6033 74.358 60.229 73.6095 59.8547ZM72.1126 57.6088C72.8611 57.6088 72.8611 57.9831 72.8611 58.3574C72.8611 58.7317 72.4868 59.106 72.1126 59.106C71.7384 59.106 70.9899 58.7317 70.9899 58.3574C71.3641 57.9831 71.7384 57.6088 72.1126 57.6088ZM72.1126 62.4749C71.3641 62.4749 70.9899 62.1006 70.9899 61.3519C70.9899 60.9776 71.3641 60.6033 71.7384 60.229C72.4868 60.229 72.8611 60.6033 72.8611 61.3519C73.2353 62.1006 72.8611 62.4749 72.1126 62.4749Z" fill="white"/>
</g>
<g id="Group_5">
<g id="Group_6">
<path id="Vector_13" d="M76.9771 38.8932C76.2286 36.273 74.7317 34.0271 72.4863 32.9042C69.8667 31.7813 67.247 31.0326 64.6274 31.4069H64.2532C63.8789 31.4069 63.8789 31.4069 63.5047 31.4069C62.382 31.4069 60.8851 31.7813 59.7624 32.1556C57.1427 33.2785 55.2716 34.7758 54.1489 37.396C53.7746 38.5189 53.7746 40.0162 53.4004 41.1391C53.4004 42.6364 53.4004 44.508 53.7746 46.0052C54.5231 48.6254 55.6458 50.497 58.2654 51.9943C60.5108 53.1172 62.7562 53.8658 65.3759 53.8658C66.1243 53.8658 66.4986 53.8658 67.247 53.8658C69.1182 53.8658 70.6151 53.4915 72.112 52.3686C73.609 51.6199 75.1059 50.497 75.8544 48.6254C76.6028 47.1282 76.9771 45.2566 77.3513 43.385C77.3513 41.8878 77.3513 40.3905 76.9771 38.8932ZM68.744 45.6309C68.744 47.1282 67.9955 47.8768 66.4986 48.2511C65.7501 48.2511 64.6274 48.2511 63.8789 48.2511C62.7562 47.8768 62.0078 47.1282 62.0078 46.0052C62.0078 45.2566 61.6335 44.508 61.6335 43.7593C61.6335 42.2621 61.6335 40.3905 62.0078 38.8932C62.382 37.7703 62.7562 37.396 63.8789 37.0217C65.0016 36.6473 65.7501 36.6473 66.8728 37.0217C67.9955 37.0217 68.744 37.7703 68.744 38.8932C68.744 39.2676 68.744 40.0162 68.744 40.7648V42.2621C69.1182 43.385 69.1182 44.508 68.744 45.6309Z" fill="white"/>
</g>
<g id="Group_7">
<path id="Vector_14" d="M48.91 53.1175C47.0389 53.8661 45.1677 54.2404 42.9223 53.8661C41.4254 53.4918 39.9284 53.4918 38.8057 52.7432C38.0573 52.3689 37.683 52.3689 37.3088 51.9945H36.9346C36.9346 52.3689 36.9346 52.7432 36.9346 53.1175C36.9346 53.4918 36.9346 53.4918 36.5603 53.4918H32.4438C32.0695 53.4918 32.0695 53.4918 32.0695 53.1175C32.0695 50.4973 32.0695 48.2514 32.0695 45.6312C32.0695 45.2569 32.0695 45.2569 32.4438 45.2569C33.5665 45.2569 35.0634 45.2569 36.1861 45.2569C36.1861 45.2569 36.5603 45.2569 36.5603 45.6312C37.683 47.5028 39.18 48.2514 41.4254 48.6257C42.5481 49 44.045 48.6257 45.1677 48.6257C45.5419 48.6257 45.9162 48.2514 45.9162 47.8771C45.9162 47.5028 45.5419 47.1284 45.1677 47.1284C42.9223 46.3798 40.6769 45.6312 38.4315 44.8826C37.3088 44.5082 36.1861 44.1339 35.4376 43.7596C34.6892 43.3853 33.9407 42.6367 33.5665 42.2624C32.4438 41.1394 32.0695 40.0165 31.6953 38.5192C31.6953 37.0219 31.6953 35.899 32.4438 34.7761C33.1922 33.2788 34.6892 32.1559 36.1861 31.7815C36.9346 31.4072 37.3088 31.4072 38.0573 31.4072C38.4315 31.4072 38.8057 31.4072 39.18 31.4072C39.9284 31.4072 40.6769 31.4072 41.0511 31.4072C42.5481 31.4072 44.045 31.7815 45.5419 32.1559C45.9162 32.1559 46.2904 32.5302 47.0389 32.9045C47.0389 32.9045 47.4131 32.9045 47.4131 33.2788C47.4131 32.9045 47.4131 32.5302 47.4131 32.1559C47.4131 32.1559 47.4131 31.7815 47.7873 31.7815H51.5297C51.9039 31.7815 51.9039 31.7815 51.9039 32.1559C51.9039 34.4017 51.9039 36.6476 51.9039 38.8935C51.9039 39.2678 51.9039 39.2678 51.5297 39.2678H47.7873H47.4131C46.2904 37.3963 44.7935 36.6476 43.2965 36.2733C42.1738 36.2733 41.4254 35.899 40.3027 35.899C39.9284 35.899 39.18 35.899 38.8057 36.2733C38.4315 36.6476 38.4315 37.3963 39.18 37.7706C39.5542 38.1449 40.3027 38.1449 41.0511 38.5192C43.2965 39.2678 45.5419 39.6422 47.7873 40.3908C50.0327 41.1394 51.9039 42.6367 52.6524 45.2569C53.4008 48.2514 51.9039 51.6202 48.91 53.1175Z" fill="white"/>
</g>
<g id="Group_8">
<path id="Vector_15" d="M30.1982 48.2514C30.5724 48.2514 30.5724 48.2514 30.1982 48.2514L30.5724 53.1175C30.5724 53.4918 30.5724 53.4918 30.1982 53.4918H16.7258C16.3516 53.4918 16.3516 53.1175 16.3516 53.1175V48.6257C16.3516 48.2514 16.3516 48.2514 16.7258 48.2514H19.7197C19.7197 47.8771 19.7197 47.5028 19.7197 47.1284V37.3963C19.7197 37.0219 19.7197 37.0219 19.3454 37.0219C18.597 37.0219 17.8485 37.0219 17.1 37.0219C16.3516 36.6476 16.3516 36.6476 16.3516 36.2733V31.7815C16.3516 31.4072 16.3516 31.4072 16.7258 31.4072H30.1982C30.5724 31.4072 30.5724 31.4072 30.5724 31.7815C30.5724 33.2788 30.5724 34.7761 30.5724 36.6476C30.5724 37.0219 30.5724 37.0219 30.1982 37.0219C29.4497 37.0219 28.327 37.0219 27.5786 37.0219C27.2043 37.0219 27.2043 37.0219 27.2043 37.3963V47.8771C27.2043 48.2514 27.2043 48.2514 27.5786 48.2514C28.327 48.2514 29.4497 48.2514 30.1982 48.2514Z" fill="white"/>
</g>
</g>
</g>
</g>
</svg>
