<svg width="95" height="94" viewBox="0 0 95 94" fill="none" xmlns="http://www.w3.org/2000/svg">
<g id="Group 1000005613">
<circle id="Ellipse 3209" cx="47.3516" cy="47" r="46" fill="#165E4C" stroke="#301703" stroke-opacity="0.87" stroke-width="2"/>
<g id="Group">
<g id="Group_2">
<g id="Group_3">
<path id="Vector" d="M76.0694 37.8201H62.3761C61.9957 37.8201 61.9957 37.8201 61.9957 37.4397C61.9957 37.0592 61.6154 36.6788 61.235 36.6788C58.9528 33.6352 56.2902 31.3525 52.4865 30.2111C50.9651 29.8306 49.0632 29.4502 47.5417 29.4502C44.1184 29.4502 41.0755 30.2111 38.0325 32.1134C36.1307 33.2547 34.6092 34.7765 33.4681 36.2983C33.0878 36.6788 33.0878 37.0592 32.7074 37.0592C32.7074 37.4397 32.327 37.4397 32.327 37.4397H18.6338C17.4927 37.4397 16.3516 38.581 16.3516 39.7224C16.3516 42.0051 16.3516 43.9073 16.3516 46.19V52.6577C16.3516 53.7991 17.1123 54.9404 18.2534 55.3209H26.6215H32.327C32.7074 55.3209 32.7074 55.3209 32.7074 55.7013C34.6092 58.7449 37.2718 61.0276 40.6951 62.5494C42.2166 63.3104 44.1184 63.6908 45.6399 63.6908C49.4436 64.0713 52.8669 63.3103 55.9099 61.4081C58.1921 59.8863 60.0939 57.984 61.6154 55.7013C61.6154 55.7013 61.6154 55.3209 61.9957 55.3209H75.689C77.2105 55.3209 78.3516 54.1795 78.3516 52.6577V40.1028C78.3516 38.9615 77.2105 37.8201 76.0694 37.8201ZM35.37 36.6788C35.7503 36.2983 36.1307 35.9179 36.5111 35.5374C38.7933 33.2547 41.8362 32.1134 45.2595 31.7329C51.3454 30.5915 56.2902 33.6352 58.9528 36.6788C59.3332 37.0592 59.7135 37.4397 60.0939 37.8201H34.2289C34.6092 37.4397 34.9896 37.0592 35.37 36.6788ZM47.1614 62.5494C41.8362 62.5494 37.2718 60.2667 34.2289 56.0818H60.0939C56.6706 60.2667 52.4865 62.5494 47.1614 62.5494ZM77.5908 53.0382C77.5908 54.1795 76.8301 54.9404 75.689 54.9404H18.6338C18.2534 54.9404 17.873 54.9404 17.4927 54.56C17.1123 54.1795 16.7319 53.7991 16.7319 53.0382V40.4833C16.7319 39.7224 17.4927 38.9615 18.2534 38.9615H75.689C76.8301 38.9615 77.5908 39.7224 77.5908 40.8637V53.0382Z" fill="white"/>
</g>
<path id="Vector_2" d="M25.8598 45.8097C25.8598 44.6684 25.8598 43.9075 25.8598 42.7661C25.8598 42.0052 25.8598 41.6248 25.8598 40.8638V40.4834C26.6205 40.4834 27.7616 40.4834 28.5224 40.4834C28.5224 44.6684 28.5224 48.8533 28.5224 53.0383C27.7616 53.0383 26.6205 53.0383 25.8598 53.0383V52.6578C25.8598 51.136 25.8598 49.6142 25.8598 48.0924C25.8598 47.712 25.8598 47.712 25.4794 47.712C24.3383 47.712 23.1972 47.712 22.0561 47.712C21.6758 47.712 21.6758 47.712 21.6758 48.0924C21.6758 49.6142 21.6758 51.136 21.6758 52.6578C21.6758 53.0383 21.6758 53.0383 21.2954 53.0383C20.5347 53.0383 19.7739 53.0383 19.0132 53.0383C18.6328 53.0383 18.6328 53.0383 18.6328 52.6578C18.6328 50.3751 18.6328 48.0924 18.6328 45.8097C18.6328 44.2879 18.6328 42.3857 18.6328 40.8638C18.6328 40.4834 18.6328 40.4834 19.0132 40.4834C19.7739 40.4834 20.5347 40.4834 21.2954 40.4834C21.2954 42.0052 21.2954 43.9075 21.2954 45.4293C23.1972 45.8097 24.3383 45.8097 25.8598 45.8097Z" fill="white"/>
<path id="Vector_3" d="M41.0761 53.0387C40.6957 51.5169 39.935 49.6146 39.5546 47.7124C38.7939 45.4297 38.0331 43.147 37.6528 41.2447C37.6528 41.2447 37.6528 40.8643 37.2724 40.8643C36.5117 40.8643 35.3706 40.8643 34.6098 40.8643C34.2295 40.8643 34.2295 40.8643 34.2295 41.2447C33.0884 45.0492 31.5669 49.2342 30.4258 53.0387C30.4258 53.0387 30.4258 53.0387 30.4258 53.4191C31.1865 53.4191 31.9473 53.4191 32.708 53.4191C32.708 53.4191 33.0884 53.4191 33.0884 53.0387C33.4687 52.2778 33.4687 51.5169 33.8491 51.1364C33.8491 50.756 33.8491 50.756 34.2295 50.756H37.6528C37.6528 50.756 38.0331 50.756 38.0331 51.1364C38.0331 51.8973 38.4135 52.6582 38.7939 53.0387C38.7939 53.4191 38.7939 53.4191 39.1742 53.4191C39.5546 53.4191 39.935 53.4191 40.6957 53.4191L41.0761 53.0387ZM33.8491 48.4733C34.2295 46.9515 34.6098 45.4297 34.9902 44.2883C35.3706 45.8101 35.7509 47.3319 36.1313 48.4733H33.8491Z" fill="white"/>
<path id="Vector_4" d="M52.4866 45.43C51.3455 45.43 50.5847 45.43 49.4436 45.43C49.4436 45.0496 49.4436 44.6691 49.0633 44.2887C48.6829 43.5278 48.3025 42.7669 47.5418 42.7669C46.4007 42.7669 45.64 43.1473 45.64 43.9082C45.2596 44.2887 45.2596 45.0496 45.2596 45.43C45.2596 46.5714 45.2596 47.7127 45.2596 48.8541C45.2596 49.615 45.64 50.3759 46.7811 50.7563C47.9222 51.1368 49.0633 50.7563 49.4436 49.615C49.4436 49.2345 49.4436 49.2345 49.824 48.8541C49.824 48.8541 49.824 48.8541 50.2044 48.4736C50.9651 48.4736 51.7258 48.4736 52.8669 48.4736C52.8669 48.8541 52.8669 49.2345 52.4866 49.615C51.7258 51.5172 50.2044 53.039 48.3025 53.039C47.1614 53.039 46.0203 53.039 44.8792 52.2781C43.3577 51.5172 42.597 50.3759 42.2166 48.4736C41.8363 46.9518 41.8363 45.0496 42.597 43.5278C43.3577 41.6255 44.4989 40.4841 46.4007 40.1037C47.5418 39.7232 48.6829 39.7232 49.824 40.1037C51.3455 40.4841 52.1062 41.6255 52.8669 43.5278C52.1062 44.6691 52.1062 45.0496 52.4866 45.43Z" fill="white"/>
<path id="Vector_5" d="M64.2776 49.2342C64.2776 49.9951 63.8972 50.756 63.5169 51.1364C62.7561 52.6582 61.2347 53.4191 59.7132 53.4191C58.5721 53.4191 57.0506 53.4191 56.2899 52.6582C54.7684 51.8973 54.0077 50.756 54.0077 49.2342C53.6273 47.3319 53.6273 45.4297 54.388 43.5274C55.1488 41.6252 56.6702 40.8643 58.9524 40.8643C60.0935 40.8643 61.2346 40.8643 61.9954 41.6252C63.1365 42.3861 63.8972 43.5274 63.8972 44.6688C63.8972 45.0492 63.8972 45.0492 63.8972 45.4297C63.5169 45.4297 63.1365 45.4297 62.7561 45.4297C62.3758 45.4297 61.9954 45.4297 61.615 45.4297C61.2347 45.4297 61.2347 45.4297 61.2347 45.0492C61.2347 44.6688 61.2347 44.2883 60.8543 43.9079C60.4739 43.147 60.0935 42.7665 59.3328 42.7665C58.5721 42.7665 57.8113 42.7665 57.431 43.5274C57.0506 43.9079 57.0506 44.6688 56.6702 45.0492C56.6702 46.1906 56.6702 47.7124 56.6702 48.8537C57.0506 49.6146 57.431 50.3755 58.1917 50.756C59.3328 51.1364 60.0935 50.756 60.8543 49.6146C60.8543 49.2342 61.2347 48.8537 61.2347 48.4733C62.3758 48.8537 63.1365 48.8537 64.2776 49.2342Z" fill="white"/>
<path id="Vector_6" d="M73.0263 41.2441C72.6459 41.2441 71.8852 41.2441 71.5048 41.2441C69.9834 41.2441 68.0815 41.2441 66.56 41.2441H66.1797V53.4186C66.1797 53.799 66.1797 53.799 66.56 53.799C67.3208 53.799 68.0815 53.799 68.8423 53.799C69.2226 53.799 69.2226 53.799 69.2226 53.4186C69.2226 52.2772 69.2226 50.7554 69.2226 49.6141V48.8532H69.603C70.3637 48.8532 71.5048 48.8532 72.6459 48.8532C74.1674 48.8532 74.9282 48.0923 75.6889 46.9509C76.0693 46.19 76.0693 45.4291 76.0693 44.6682C75.6889 42.7659 74.1674 41.2441 73.0263 41.2441ZM71.5048 46.5705C70.7441 46.5705 69.9834 46.5705 69.2226 46.5705C69.2226 46.5705 68.8423 46.5705 68.8423 46.19V43.1464V42.7659C69.603 42.7659 70.3637 42.7659 71.1245 42.7659C71.8852 42.7659 72.6459 43.5268 72.6459 44.2878C72.6459 45.8096 72.2656 46.5705 71.5048 46.5705Z" fill="white"/>
<path id="Vector_7" d="M42.2173 26.7876C42.978 26.4071 42.978 26.0267 42.978 25.2658C42.978 24.8853 42.2173 24.5049 41.8369 24.5049C41.4565 24.5049 41.4565 24.5049 41.0762 24.5049C40.6958 24.5049 40.3154 24.8853 39.5547 24.8853C39.5547 26.4071 39.9351 27.5485 39.9351 28.6898C39.9351 29.4507 39.9351 29.4507 40.6958 29.0703C40.6958 28.6898 40.3154 27.9289 40.3154 27.5485C40.6958 27.168 41.0762 27.5485 41.4565 27.5485C41.8369 27.9289 42.2173 27.9289 42.5976 28.3094C42.978 28.3094 42.978 28.3094 43.3584 28.3094C43.3584 27.5485 42.5976 27.168 42.2173 26.7876ZM41.4565 26.4071C41.0762 26.4071 40.6958 26.7876 40.3154 26.7876C40.3154 26.4071 39.9351 26.0267 39.9351 25.6462C40.3154 25.6462 40.6958 25.2658 41.0762 25.2658C41.4565 25.2658 41.4565 25.2658 41.8369 25.6462C42.2173 26.0267 41.8369 26.4071 41.4565 26.4071Z" fill="white"/>
<path id="Vector_8" d="M62.3755 29.8314C61.9951 29.4509 61.2344 28.69 60.854 28.3096C60.0932 29.4509 58.9521 30.2118 58.1914 31.3532C58.5718 31.7336 59.3325 32.1141 59.7129 32.4945C60.0933 32.875 60.4736 32.875 60.854 32.4945C61.9951 32.875 62.3755 32.1141 62.7558 31.3532C62.7558 30.5923 62.7558 30.2118 62.3755 29.8314ZM61.9951 30.9727C61.6147 31.3532 61.6147 31.7336 61.2344 32.1141C60.854 32.4945 60.4736 32.4945 60.0932 32.1141C59.7129 32.1141 59.7129 31.7336 59.3325 31.3532C60.0933 30.5923 60.4736 30.2118 61.2344 29.4509C61.2344 29.4509 61.2344 29.4509 61.6147 29.4509C61.6147 29.4509 61.9951 29.8314 62.3755 29.8314C61.9951 30.5923 61.9951 30.9727 61.9951 30.9727Z" fill="white"/>
<path id="Vector_9" d="M57.8125 30.5914C57.8125 30.9718 57.8125 30.9718 57.4321 30.9718C56.6714 30.5914 55.5303 30.2109 54.7695 29.45C55.5303 28.3087 55.9106 27.1673 56.6714 25.6455C57.4321 26.026 58.5732 26.4064 59.334 27.1673C59.334 27.5478 58.9536 27.5478 58.9536 27.5478C58.1928 27.1673 57.8125 26.7869 57.0517 26.7869C56.6714 26.7869 56.6714 26.7869 56.6714 26.7869C56.291 27.5478 56.291 27.5478 57.0517 27.5478C57.4321 27.9282 57.8125 27.9282 58.1928 28.3087C58.1928 28.6891 58.1928 28.6891 57.8125 29.0696C57.4321 28.6891 56.6714 28.6891 56.291 28.3087C55.9106 28.3087 55.9106 28.3087 55.9106 28.3087C55.9106 28.6891 55.9106 28.6891 55.5303 29.0696V29.45C56.291 29.8305 57.0517 30.2109 57.8125 30.5914Z" fill="white"/>
<path id="Vector_10" d="M34.6094 27.5482C35.3701 27.1677 36.5112 26.4068 37.2719 26.0264C37.2719 26.4068 37.6523 26.4068 37.6523 26.4068C36.8916 26.7873 36.5112 27.1677 35.7505 27.5482C35.7505 27.9286 36.1308 27.9286 36.1308 28.3091H36.5112C36.8916 27.9286 37.6523 27.5482 38.0327 27.5482L38.4131 27.9286C38.0327 28.3091 37.6523 28.3091 36.8916 28.6895C36.5112 29.07 36.5112 28.6895 36.8916 29.4504C37.272 30.2113 37.2719 30.2113 37.6523 29.8309C38.0327 29.4504 38.4131 29.4504 39.1738 29.07L39.5542 29.4504C38.7934 29.8309 37.6523 30.5918 36.8916 30.9722C36.1308 29.8309 35.3701 28.6895 34.6094 27.5482Z" fill="white"/>
<path id="Vector_11" d="M34.2288 29.0702C34.2288 29.4506 33.8485 29.4506 33.8485 29.4506C33.4681 29.4506 33.4681 29.4506 33.0877 29.4506C32.7074 29.4506 32.327 30.2115 32.327 30.592C32.327 31.3529 33.0877 31.7333 33.4681 32.1138C33.8485 32.1138 34.2288 32.1138 34.6092 31.7333C34.9896 31.3529 34.9896 30.9724 34.9896 30.9724V30.592C35.3699 30.592 35.3699 30.2115 35.7503 30.2115C36.1307 30.9724 35.7503 32.1138 34.6092 32.4942C33.8485 32.8747 33.0877 32.4942 32.327 31.7333C31.9466 30.9724 31.5662 30.592 31.9466 29.8311C31.9466 29.0702 33.0877 28.6897 34.2288 29.0702Z" fill="white"/>
<path id="Vector_12" d="M50.9653 26.7876C50.9653 27.5485 50.585 27.9289 50.585 28.6898C50.2046 28.6898 50.2046 28.6898 49.8242 28.6898C50.2046 27.168 50.585 26.0267 50.585 24.5049C51.3457 24.5049 52.1064 24.8853 52.8672 24.8853C52.8672 24.8853 52.8672 24.8853 53.2475 24.8853C53.6279 24.8853 53.6279 24.8853 53.6279 25.2658C53.6279 25.6462 53.6279 25.6462 53.2475 25.2658C52.4868 25.2658 52.1064 25.2658 51.3457 24.8853C50.9653 24.8853 50.9653 24.8853 50.9653 24.8853C50.9653 25.2658 50.9653 25.2658 50.9653 25.6462C51.7261 25.6462 52.1064 26.0267 52.4868 26.0267C52.4868 26.4071 52.4868 26.4071 52.4868 26.7876C52.1064 26.7876 51.3457 26.7876 50.9653 26.7876Z" fill="white"/>
<path id="Vector_13" d="M43.7383 24.8849C43.7383 24.5045 43.7383 24.5045 43.7383 24.8849C43.7383 24.124 43.7383 24.124 44.1187 24.124C44.8794 24.124 45.6401 24.124 46.4009 24.124C46.7812 24.124 46.7812 24.124 46.7812 24.5045C46.7812 24.5045 46.7812 24.5045 46.7812 24.8849C46.4009 24.8849 46.0205 24.8849 46.0205 24.8849C45.6401 24.8849 45.6401 24.8849 45.6401 25.2654C45.6401 26.0263 45.6401 27.1676 46.0205 27.9285V28.309C45.6401 28.309 45.6401 28.309 45.2598 28.309C45.2598 27.1676 45.2598 26.0263 44.8794 24.8849C44.8794 24.5045 44.499 24.8849 43.7383 24.8849Z" fill="white"/>
<path id="Vector_14" d="M54.0068 29.4502C53.6265 29.4502 53.6265 29.4502 53.2461 29.0698C53.2461 28.6893 53.6265 28.3088 53.6265 27.9284C54.0068 27.1675 54.0068 26.4066 54.3872 25.6457C54.3872 25.2652 54.3872 25.2652 54.7676 25.6457H55.1479C54.7676 26.787 54.3872 27.9284 54.0068 29.4502Z" fill="white"/>
<path id="Vector_15" d="M48.6826 28.309C47.9219 28.309 47.9219 28.309 47.9219 27.5481C47.9219 26.4067 47.9219 25.2654 48.3022 24.124H48.6826C49.063 24.124 49.063 24.124 49.063 24.5045C49.063 24.8849 49.063 25.6458 49.063 26.0263C49.063 26.7872 48.6826 27.5481 48.6826 28.309Z" fill="white"/>
<path id="Vector_16" d="M59.7139 61.7885C60.4746 62.5494 61.2353 63.6907 61.9961 64.4516C61.6157 64.4516 61.6157 64.8321 61.2353 64.8321C60.4746 64.0712 59.7138 62.9298 58.9531 62.1689C58.5727 62.5494 58.5727 62.5494 58.1924 62.9298C57.812 62.9298 57.812 62.9298 57.812 62.9298C57.812 62.9298 57.812 62.9298 57.4316 62.5494C58.1924 62.1689 58.5727 61.7885 59.3335 61.0276C59.7138 60.6471 60.0942 60.2667 60.4746 59.8862C60.4746 59.8862 60.4746 59.8862 60.855 59.8862C61.2353 59.8862 61.9961 60.2667 62.7568 60.2667C62.7568 60.2667 62.7568 60.2667 62.7568 59.8862C62.7568 59.5058 62.3764 59.1253 62.3764 58.3644V57.984L62.7568 57.6035C63.1372 58.3644 63.1372 59.1253 63.5175 59.8862C63.5175 59.8862 63.5175 60.2667 63.8979 60.2667C64.2783 60.6471 64.6586 61.0276 65.039 61.408C65.039 61.7885 64.6586 61.7885 64.6586 62.1689C64.2783 61.7885 63.8979 61.7885 63.5175 61.408C63.1372 61.0276 63.1372 61.0276 62.7568 61.0276C61.9961 61.0276 61.6157 61.0276 60.855 60.6471C60.855 60.6471 60.855 61.0276 60.4746 61.0276C60.4746 61.408 60.0942 61.7885 59.7139 61.7885Z" fill="white"/>
<path id="Vector_17" d="M38.7934 64.0715C38.0327 63.691 37.272 63.691 36.8916 64.0715C36.5112 64.4519 36.1309 64.8324 36.1309 65.5933C36.1309 66.3542 36.1309 67.1151 36.5112 67.4955C36.8916 67.876 37.6523 68.2564 38.4131 68.2564C39.1738 68.2564 39.9345 67.1151 39.9345 65.9737C39.9345 64.8324 39.5542 64.4519 38.7934 64.0715ZM38.4131 67.1151C38.0327 67.4955 37.6523 67.4955 37.272 67.1151C36.8916 67.1151 36.5112 66.7346 36.5112 65.9737C36.5112 65.5933 36.8916 65.2128 36.8916 64.8324C37.272 64.4519 37.6523 64.4519 38.4131 64.4519C38.7934 64.8324 39.1738 65.2128 39.1738 65.5933C39.1738 66.3542 38.7934 66.7346 38.4131 67.1151Z" fill="white"/>
<path id="Vector_18" d="M34.2295 61.4082C33.0884 61.4082 31.9473 62.5496 31.9473 63.6909C31.9473 64.4518 32.3276 64.8323 32.708 65.2127C33.0884 65.5932 33.4687 65.9736 34.2295 65.5932C35.3706 65.5932 35.7509 64.8323 36.1313 63.6909C36.8921 62.5496 35.3706 61.4082 34.2295 61.4082ZM34.6098 64.8323C33.8491 65.2127 33.0884 64.4518 33.0884 63.6909C33.0884 62.93 33.8491 62.1691 34.6098 62.1691C35.3706 62.1691 35.7509 62.93 35.7509 63.3105C35.3706 64.0714 34.9902 64.8323 34.6098 64.8323Z" fill="white"/>
<path id="Vector_19" d="M42.5976 65.5934C41.8369 65.213 41.4565 65.213 40.6958 64.8325C40.3154 65.9739 39.9351 67.4957 39.5547 69.0175C40.3154 69.0175 40.6958 69.3979 41.4565 69.3979C42.2173 69.3979 42.5976 69.3979 42.978 68.637C43.3584 68.2566 43.3584 67.4957 43.3584 66.7348C43.3584 65.9739 42.978 65.5934 42.5976 65.5934ZM42.2173 68.2566C42.2173 68.637 41.8369 69.0175 41.4565 68.637C41.0762 68.637 40.6958 68.637 40.3154 68.2566C40.3154 67.4957 40.6958 66.7348 40.6958 66.3543C40.6958 65.5934 41.0762 65.5934 41.4565 65.9739C42.2173 65.9739 42.2173 66.3543 42.2173 67.1152C42.5976 67.4957 42.5976 67.8761 42.2173 68.2566Z" fill="white"/>
<path id="Vector_20" d="M48.3022 67.115H47.9219C47.5415 67.115 47.5415 67.115 47.5415 66.7345C47.5415 66.3541 46.4004 66.3541 46.02 66.3541V66.7345C46.4004 66.7345 46.4004 66.7345 46.7807 67.115C47.1611 67.115 47.5415 67.4954 47.5415 67.4954C47.9219 67.8759 48.3022 67.8759 48.3022 68.6368C48.3022 69.0172 48.3022 69.3977 47.5415 69.7781C46.7807 70.1586 46.02 70.1586 45.6396 69.7781C45.2593 69.3977 44.8789 69.0172 44.8789 68.6368C45.2593 68.6368 45.2593 68.6368 45.6396 68.6368C45.6396 68.6368 45.6396 68.6368 45.6396 69.0172C46.02 69.3977 46.4004 69.7781 47.1611 69.3977L47.5415 69.0172C47.5415 69.0172 47.5415 68.6368 47.1611 68.6368C46.7807 68.6368 46.4004 68.2563 46.02 68.2563C45.2593 67.8759 44.8789 67.4954 45.2593 67.115C45.2593 66.7345 45.6396 66.3541 46.4004 65.9736C46.7808 65.9736 47.1611 65.9736 47.5415 65.9736C48.3022 65.9736 48.3022 66.7345 48.3022 67.115Z" fill="white"/>
<path id="Vector_21" d="M57.811 63.6911C57.0503 64.0716 56.2895 64.452 55.9092 64.8325C55.9092 65.2129 56.2895 65.5934 56.2895 65.5934C57.0503 65.2129 57.4306 64.8325 58.1914 64.8325C58.1914 64.8325 58.1914 65.2129 58.5717 65.5934C57.811 65.9738 57.4306 66.3543 56.6699 66.3543C56.6699 66.7347 57.0503 67.1152 57.0503 67.4956C57.811 67.1152 58.5718 66.7347 59.3325 66.3543C59.3325 66.7347 59.3325 66.7347 59.7129 67.1152C58.9521 67.4956 57.811 67.8761 57.0503 68.637C56.2895 67.4956 55.9092 65.9738 55.1484 64.8325C55.9092 64.452 57.0503 64.0716 57.811 63.6911C57.811 63.3106 57.811 63.3106 57.811 63.6911Z" fill="white"/>
<path id="Vector_22" d="M52.4858 69.0173C51.7251 67.876 51.3447 67.1151 50.584 65.9737C50.2036 65.5933 50.2036 65.5933 49.8232 65.5933C49.8232 65.5933 49.8232 65.5933 49.4429 65.9737C49.4429 67.1151 49.0625 68.2564 49.0625 69.0173C49.0625 69.3978 49.0625 69.3978 49.0625 69.7782C49.4429 69.7782 49.4429 69.7782 49.8232 69.0173C49.8232 68.6369 49.8232 68.6369 50.2036 68.6369H50.584C51.3447 68.6369 51.3447 68.6369 51.7251 69.0173C51.7251 69.0173 51.7251 69.0173 52.1054 69.0173C52.4858 69.3978 52.4858 69.3978 52.4858 69.0173ZM49.8232 68.2564C49.8232 67.4955 49.8232 67.1151 50.2036 66.7346C50.584 67.1151 50.584 67.4955 50.9643 68.2564C50.584 68.2564 50.2036 68.2564 49.8232 68.2564Z" fill="white"/>
<path id="Vector_23" d="M31.5659 60.6478C31.9463 61.0282 32.3266 61.4087 32.707 61.7891L32.3266 62.1696C31.9463 61.7891 31.5659 61.4087 31.1855 61.0282C30.8052 61.4087 30.4248 61.7891 30.0444 62.1696L29.6641 61.7891C30.8052 60.6478 31.5659 59.8869 32.707 59.126C33.4677 59.8869 34.2285 60.2673 34.6089 61.0282C34.2285 61.4087 34.2285 61.4087 34.2285 61.4087C33.8481 61.0282 33.0874 60.6478 32.707 59.8869C31.9463 59.8869 31.5659 60.2673 31.5659 60.6478Z" fill="white"/>
<path id="Vector_24" d="M54.0083 69.0171C53.6279 69.0171 53.6279 69.0171 53.2475 69.3975C52.8672 69.3975 52.8672 69.3975 52.8672 69.0171C52.4868 68.2562 52.1064 67.1148 51.7261 66.3539C51.7261 65.9735 51.3457 65.593 51.3457 65.2126C51.7261 65.2126 52.1064 64.8321 52.1064 64.8321C52.4868 64.8321 52.8672 64.4517 53.6279 64.4517C54.0083 64.4517 54.0083 64.4517 54.0083 64.8321C54.0083 64.8321 54.0083 64.8321 54.0083 65.2126C53.2475 65.593 52.8672 65.593 52.1064 65.9735C52.1064 66.3539 52.4868 66.7344 52.4868 67.1148C52.8672 66.7344 53.6279 66.7344 54.0083 66.3539C54.0083 66.7344 54.0083 66.7344 54.3886 67.1148C54.0083 67.4953 53.2475 67.4953 52.8672 67.8757C53.6279 67.8757 54.0083 68.6366 54.0083 69.0171Z" fill="white"/>
</g>
<g id="Group_4">
<path id="Vector_25" d="M72.6451 57.2231C68.8414 67.4953 58.9518 74.7239 47.1604 74.7239C35.369 74.7239 25.4795 67.4953 21.6758 57.2231H20.1543C24.3383 68.2562 34.9887 76.2457 47.5408 76.2457C60.093 76.2457 70.7433 68.2562 74.9273 57.2231H72.6451Z" fill="white"/>
<path id="Vector_26" d="M21.6758 36.2984C25.8598 26.4066 35.7494 19.1781 47.1604 19.1781C58.5715 19.1781 68.461 26.0262 72.6451 36.2984H74.1666C69.9825 25.6457 59.3322 17.6562 47.1604 17.6562C34.9887 17.6562 24.3383 25.2653 20.1543 36.2984H21.6758Z" fill="white"/>
</g>
</g>
</g>
</svg>
