<svg width="95" height="94" viewBox="0 0 95 94" fill="none" xmlns="http://www.w3.org/2000/svg">
<g id="Group 1000005611">
<circle id="Ellipse 3209" cx="47.3516" cy="47" r="46" fill="#165E4C" stroke="#301703" stroke-opacity="0.87" stroke-width="2"/>
<g id="Group">
<g id="Group_2">
<g id="Group_3">
<path id="Vector" fill-rule="evenodd" clip-rule="evenodd" d="M23.4987 42.638H31.3051V39.7461H20.6074V50.1569H23.4987V42.9272V42.638Z" fill="white"/>
</g>
<g id="Group_4">
<path id="Vector_2" fill-rule="evenodd" clip-rule="evenodd" d="M20.6074 29.9141H42.0027C46.6287 29.9141 50.3874 33.6735 50.3874 38.0113C50.3874 42.6384 46.6287 46.1086 42.0027 46.1086H36.7985V35.987H39.6897V43.5059H39.9788H42.0027C44.894 43.5059 47.4961 41.1924 47.4961 38.0113C47.4961 35.1195 45.1831 32.8059 42.0027 32.5168H23.4987V35.6978H31.3051V38.5897H20.6074V29.9141Z" fill="white"/>
</g>
<g id="Group_5">
<path id="Vector_3" fill-rule="evenodd" clip-rule="evenodd" d="M63.6875 26.1543L76.6981 47.2651L78.4329 44.3732L66.8679 26.1543H63.6875Z" fill="white"/>
</g>
<g id="Group_6">
<path id="Vector_4" fill-rule="evenodd" clip-rule="evenodd" d="M50.0977 50.1569L63.6866 28.4678L74.6733 46.1083H59.3497V43.5056H69.1799L63.6866 34.2515L54.1454 50.1569H50.0977Z" fill="white"/>
</g>
<g id="Group_7">
<path id="Vector_5" fill-rule="evenodd" clip-rule="evenodd" d="M76.6991 47.2651H59.3516V50.157H74.9643L76.6991 47.2651Z" fill="white"/>
</g>
<g id="Group_8">
<path id="Vector_6" fill-rule="evenodd" clip-rule="evenodd" d="M32.4625 47.2652V35.9868H35.3538V47.2652H41.7145C46.9188 47.2652 51.2557 43.2165 51.2557 38.0112C51.2557 32.8058 46.9188 28.7571 41.7145 28.7571H19.1627V50.1571H16.2715V25.8652H41.7145C47.7862 25.8652 52.7013 29.9139 53.8578 35.6976L59.9294 26.1544H63.6881L53.2795 42.9274L52.123 44.6625C50.0992 47.8436 46.3405 50.1571 42.0037 50.1571H32.4625V47.2652Z" fill="white"/>
</g>
</g>
<g id="Group_9">
<g id="Group_10">
<g id="Group_11">
<path id="Vector_7" d="M16.5625 56.5205H17.4299V58.834C17.4299 59.1232 17.4299 59.4124 17.4299 59.7016C17.4299 59.9908 17.4299 59.9908 17.719 60.28C18.0081 60.28 18.0081 60.5691 18.2972 60.5691C18.5864 60.5691 18.8755 60.5691 18.8755 60.28L19.1646 59.9908C19.1646 59.7016 19.1646 59.7016 19.1646 59.1232V56.5205H20.3211V58.834C20.3211 59.4124 20.3211 59.7016 20.3211 59.9908C20.3211 60.28 20.032 60.28 20.032 60.5691C20.032 60.8583 19.7429 60.8583 19.4538 60.8583C19.1646 60.8583 18.8755 60.8583 18.5864 60.8583C18.0081 60.8583 17.719 60.8583 17.4299 60.5691C17.1407 60.5691 17.1407 60.28 16.8516 60.28C16.8516 59.9908 16.5625 59.9908 16.5625 59.7016C16.5625 59.4124 16.5625 59.1232 16.5625 58.5448V56.5205Z" fill="white"/>
</g>
<g id="Group_12">
<path id="Vector_8" d="M21.4746 61.1469V60.2793H22.342V61.1469H21.4746Z" fill="white"/>
</g>
<g id="Group_13">
<path id="Vector_9" d="M22.9238 59.7017H23.7912C23.7912 59.9909 24.0803 60.2801 24.0803 60.2801C24.3694 60.2801 24.3695 60.5693 24.6586 60.5693C24.9477 60.5693 25.2368 60.5693 25.2368 60.2801C25.526 60.2801 25.526 59.9909 25.526 59.7017V59.4125C25.526 59.4125 25.2368 59.4125 25.2368 59.1233C25.2368 59.1233 24.9477 59.1233 24.3695 58.8341C23.7912 58.8341 23.5021 58.545 23.2129 58.2558C23.2129 58.2558 23.2129 57.9666 23.2129 57.6774C23.2129 57.3882 23.2129 57.099 23.5021 57.099C23.5021 56.8098 23.7912 56.8098 24.0803 56.5206C24.3694 56.5206 24.6586 56.2314 24.9477 56.2314C25.5259 56.2314 26.1042 56.2314 26.3933 56.5206C26.6825 56.8098 26.9716 57.099 26.9716 57.6774H26.1042C26.1042 57.3882 26.1042 57.3882 25.8151 57.099C25.8151 57.099 25.526 56.8098 25.2368 56.8098C24.9477 56.8098 24.6586 56.8098 24.6586 57.099L24.3695 57.3882V57.6774C24.3695 57.6774 24.6586 57.9666 25.2368 57.9666C25.8151 57.9666 26.1042 58.2558 26.3933 58.2558C26.6825 58.2558 26.6825 58.545 26.9716 58.8341C26.9716 59.1233 27.2607 59.4125 27.2607 59.7017C27.2607 59.9909 27.2607 60.2801 26.9716 60.5693C26.6825 60.8585 26.6825 60.8585 26.3933 61.1477C26.1042 61.1477 25.8151 61.4368 25.2368 61.4368C24.6586 61.4368 24.0803 61.4368 23.7912 61.1477C23.213 60.5693 23.213 59.9909 22.9238 59.7017Z" fill="white"/>
</g>
<g id="Group_14">
<path id="Vector_10" d="M27.8379 61.1474V60.2798H28.7053V61.1474H27.8379Z" fill="white"/>
</g>
<g id="Group_15">
<path id="Vector_11" d="M31.5977 61.1475V56.5205H34.778V57.3881H32.465V58.5448H34.4889V59.4124H32.465V61.4367H31.5977V61.1475Z" fill="white"/>
</g>
<g id="Group_16">
<path id="Vector_12" d="M35.3555 58.8335C35.3555 58.2552 35.3555 57.966 35.6446 57.6768C35.6446 57.3876 35.9337 57.0984 36.2228 57.0984C36.512 56.8092 36.512 56.8092 36.8011 56.8092C37.0902 56.8092 37.3793 56.52 37.9576 56.52C38.5358 56.52 39.1141 56.8092 39.6923 57.0984C39.9815 57.3876 40.2706 58.2552 40.2706 58.8335C40.2706 59.7011 39.9815 60.2795 39.6923 60.5687C39.4032 60.8578 38.825 61.147 37.9576 61.147C37.3793 61.147 36.8011 60.8578 36.2228 60.5687C35.6446 59.9903 35.3555 59.4119 35.3555 58.8335ZM36.512 58.8335C36.512 59.4119 36.512 59.7011 36.8011 59.9903C37.0902 60.2795 37.3793 60.2795 37.6685 60.2795C37.9576 60.2795 38.2467 60.2795 38.5358 59.9903C38.825 59.7011 38.825 59.4119 38.825 58.8335C38.825 58.2552 38.825 57.966 38.5358 57.6768C38.2467 57.3876 37.9576 57.3876 37.6685 57.3876C37.3793 57.3876 37.0902 57.3876 36.8011 57.6768C36.512 57.966 36.512 58.2552 36.512 58.8335Z" fill="white"/>
</g>
<g id="Group_17">
<path id="Vector_13" d="M40.5586 58.8335C40.5586 58.2552 40.5586 57.966 40.8477 57.6768C40.8477 57.3876 41.1368 57.0984 41.426 57.0984C41.7151 56.8092 41.7151 56.8092 42.0042 56.8092C42.2933 56.8092 42.5825 56.52 43.1607 56.52C43.739 56.52 44.3172 56.8092 44.8955 57.0984C45.1846 57.3876 45.4737 58.2552 45.4737 58.8335C45.4737 59.7011 45.1846 60.2795 44.8955 60.5687C44.6063 60.8578 44.0281 61.147 43.1607 61.147C42.5825 61.147 42.0042 60.8578 41.426 60.5687C40.8477 59.9903 40.5586 59.4119 40.5586 58.8335ZM41.7151 58.8335C41.7151 59.4119 41.7151 59.7011 42.0042 59.9903C42.2933 60.2795 42.5825 60.2795 42.8716 60.2795C43.1607 60.2795 43.4498 60.2795 43.739 59.9903C44.0281 59.7011 44.0281 59.4119 44.0281 58.8335C44.0281 58.2552 44.0281 57.966 43.739 57.6768C43.4498 57.3876 43.1607 57.3876 42.8716 57.3876C42.5825 57.3876 42.2933 57.3876 42.0042 57.6768C41.7151 57.966 41.7151 58.2552 41.7151 58.8335Z" fill="white"/>
</g>
<g id="Group_18">
<path id="Vector_14" d="M46.0508 56.5205H47.7855C48.0747 56.5205 48.3638 56.5205 48.6529 56.5205C48.942 56.5205 49.2312 56.8097 49.5203 56.8097C49.8094 57.0989 49.8094 57.3881 50.0985 57.6773C50.0985 57.9665 50.3877 58.2556 50.3877 58.834C50.3877 59.1232 50.3877 59.4124 50.0985 59.7016C50.0985 59.9908 49.8094 60.28 49.5203 60.5691C49.2312 60.8583 49.2312 60.8583 48.942 60.8583C48.6529 60.8583 48.3638 60.8583 48.0747 60.8583H46.3399V56.5205H46.0508ZM46.9182 57.0989V60.28H47.7855C48.0747 60.28 48.3638 60.28 48.3638 60.28C48.6529 60.28 48.6529 60.28 48.6529 59.9908C48.6529 59.9908 48.942 59.7016 48.942 59.4124C48.942 59.1232 48.942 58.834 48.942 58.5448C48.942 58.2556 48.942 57.9665 48.942 57.6773C48.942 57.3881 48.6529 57.3881 48.6529 57.0989C48.6529 57.0989 48.3638 56.8097 48.0747 56.8097C48.0747 56.8097 47.7855 56.8097 47.2073 56.8097H46.9182V57.0989Z" fill="white"/>
</g>
<g id="Group_19">
<path id="Vector_15" d="M57.0401 60.5689L56.4618 61.1473C56.1727 61.1473 55.8836 60.8581 55.5944 60.5689C55.3053 60.8581 55.3053 60.8581 55.0162 60.8581C54.7271 60.8581 54.4379 60.8581 54.1488 60.8581C53.5706 60.8581 52.9923 60.5689 52.7032 60.2797C52.4141 59.9905 52.4141 59.7013 52.4141 59.4122C52.4141 59.123 52.4141 58.8338 52.7032 58.5446C52.9923 58.2554 53.2814 57.9662 53.5706 57.9662C53.2814 57.677 53.2814 57.677 53.2814 57.3878C53.2814 57.0986 53.2814 57.0986 53.2814 56.8095C53.2814 56.5203 53.2814 56.2311 53.5706 56.2311C53.8597 56.2311 54.1488 55.9419 54.4379 55.9419C54.7271 55.9419 55.3053 55.9419 55.3053 56.2311C55.5944 56.5203 55.5944 56.8095 55.5944 57.0986C55.5944 57.3878 55.5944 57.3878 55.3053 57.677C55.3053 57.9662 55.0162 57.9662 54.7271 58.2554L55.3053 59.123C55.3053 59.123 55.5944 58.8338 55.5944 58.5446L56.4618 58.8338C56.4618 59.123 56.1727 59.4122 56.1727 59.4122C56.1727 59.4122 56.1727 59.7013 55.8836 59.7013L56.1727 59.9905C56.751 60.2797 56.751 60.5689 57.0401 60.5689ZM54.1488 58.8338C53.8597 58.8338 53.8597 59.123 53.5706 59.123C53.5706 59.123 53.2814 59.4122 53.2814 59.7013C53.2814 59.9905 53.2814 59.9905 53.5706 60.2797C53.5706 60.2797 53.8597 60.5689 54.1488 60.5689H54.4379C54.4379 60.5689 54.7271 60.5689 55.0162 60.2797L54.1488 58.8338ZM54.4379 57.9662C54.7271 57.677 55.0162 57.3878 55.0162 57.3878V57.0986H54.7271C54.4379 57.0986 54.4379 57.0986 54.4379 57.0986V57.3878C54.1488 57.3878 54.1488 57.677 54.4379 57.9662Z" fill="white"/>
</g>
<g id="Group_20">
<path id="Vector_16" d="M59.3516 56.52H61.0863C61.3754 56.52 61.6646 56.52 61.9537 56.52C62.2428 56.52 62.5319 56.8092 62.8211 56.8092C63.1102 57.0984 63.1102 57.3876 63.3993 57.6768C63.3993 57.966 63.6884 58.2552 63.6884 58.8335C63.6884 59.1227 63.6884 59.4119 63.3993 59.7011C63.3993 59.9903 63.1102 60.2795 62.8211 60.5687C62.5319 60.8578 62.5319 60.8578 62.2428 60.8578C61.9537 60.8578 61.6646 60.8578 61.3754 60.8578H59.6407V56.52H59.3516ZM60.5081 57.0984V60.2795H61.3754C61.6646 60.2795 61.9537 60.2795 61.9537 60.2795C62.2428 60.2795 62.2428 60.2795 62.2428 59.9903C62.2428 59.9903 62.5319 59.7011 62.5319 59.4119C62.5319 59.1227 62.5319 58.8335 62.5319 58.5443C62.5319 58.2552 62.5319 57.966 62.5319 57.6768C62.5319 57.3876 62.2428 57.3876 62.2428 57.0984C62.2428 57.0984 61.9537 56.8092 61.6646 56.8092C61.6646 56.8092 61.3754 56.8092 60.7972 56.8092H60.5081V57.0984Z" fill="white"/>
</g>
<g id="Group_21">
<path id="Vector_17" d="M64.2676 61.1475V56.5205H66.2915C66.8697 56.5205 67.1588 56.5205 67.448 56.5205C67.7371 56.5205 67.7371 56.8097 68.0262 57.0989C68.0262 57.3881 68.3153 57.6773 68.3153 57.9665C68.3153 58.2556 68.3153 58.5448 68.0262 58.834C67.7371 59.1232 67.448 59.1232 67.1588 59.1232C67.448 59.1232 67.448 59.4124 67.7371 59.4124C67.7371 59.4124 68.0262 59.7016 68.3153 60.28L68.8936 61.1475H67.7371L66.5806 59.9908C66.2915 59.7016 66.2915 59.4124 66.0023 59.4124L65.7132 59.1232C65.7132 59.1232 65.4241 59.1232 65.135 59.1232H64.8458V61.1475H64.2676ZM65.135 58.5448H65.7132C66.2915 58.5448 66.5806 58.5448 66.5806 58.5448C66.5806 58.5448 66.8697 58.5448 66.8697 58.2556V57.9665C66.8697 57.6773 66.8697 57.6773 66.8697 57.6773L66.5806 57.3881C66.5806 57.3881 66.2915 57.3881 66.0023 57.3881H65.135V58.5448Z" fill="white"/>
</g>
<g id="Group_22">
<path id="Vector_18" d="M69.1837 56.5205H70.051V58.834C70.051 59.1232 70.051 59.4124 70.051 59.7016C70.051 59.9908 70.051 59.9908 70.3402 60.28C70.6293 60.28 70.6293 60.5691 70.9184 60.5691C71.2075 60.5691 71.4967 60.5691 71.4967 60.28L71.7858 59.9908C71.7858 59.7016 71.7858 59.7016 71.7858 59.1232V56.5205H72.6532V58.834C72.6532 59.4124 72.6532 59.7016 72.6532 59.9908C72.6532 60.28 72.364 60.28 72.364 60.5691C72.364 60.8583 72.0749 60.8583 71.7858 60.8583C71.4967 60.8583 71.2075 60.8583 70.9184 60.8583C70.3402 60.8583 70.051 60.8583 69.7619 60.5691C69.4728 60.5691 69.4728 60.28 69.1837 60.28C69.1837 59.9908 68.8945 59.9908 68.8945 59.7016C68.8945 59.4124 68.8945 59.1232 68.8945 58.5448V56.5205H69.1837Z" fill="white"/>
</g>
<g id="Group_23">
<path id="Vector_19" d="M76.1236 59.4124V58.5448H78.1475V60.28C77.8584 60.5691 77.5692 60.5691 77.2801 60.8583C76.991 60.8583 76.4127 61.1475 76.1236 61.1475C75.5454 61.1475 75.2562 61.1475 74.678 60.8583C74.3889 60.5691 74.0997 60.28 73.8106 59.9908C73.5215 59.7016 73.5215 59.1232 73.5215 58.834C73.5215 58.2556 73.5215 57.9665 73.8106 57.6773C74.0997 57.3881 74.3889 57.0989 74.678 56.8097C74.9671 56.5205 75.2562 56.5205 75.8345 56.5205C76.4127 56.5205 76.991 56.5205 77.2801 56.8097C77.5692 57.0989 77.8584 57.3881 77.8584 57.6773L76.991 57.9665C76.991 57.6773 76.7019 57.6773 76.7019 57.3881C76.4127 57.3881 76.4127 57.0989 76.1236 57.0989C75.8345 57.0989 75.2562 57.0989 75.2562 57.3881C74.9671 57.6773 74.9671 57.9664 74.9671 58.5448C74.9671 59.1232 74.9671 59.4124 75.2562 59.7016C75.5454 59.9908 75.8345 59.9908 76.1236 59.9908C76.4127 59.9908 76.4127 59.9908 76.7019 59.9908C76.991 59.9908 76.991 59.7016 77.2801 59.7016V59.1232H76.1236V59.4124Z" fill="white"/>
</g>
</g>
<g id="Group_24">
<g id="Group_25">
<path id="Vector_20" d="M20.032 66.9307H19.1646L18.8755 66.0631H17.4299V66.9307H16.5625L18.0081 63.4604H18.8755L20.032 66.9307ZM18.8755 65.4848L18.2972 64.328L17.719 65.4848H18.8755Z" fill="white"/>
</g>
<g id="Group_26">
<path id="Vector_21" d="M20.3184 63.4595H21.4749C21.764 63.4595 22.0531 63.4595 22.0531 63.4595C22.3422 63.4595 22.3422 63.7487 22.6314 63.7487C22.6314 64.0378 22.9205 64.0378 22.9205 64.327C22.9205 64.6162 22.9205 64.9054 22.9205 65.1946C22.9205 65.4838 22.9205 65.773 22.9205 65.773C22.9205 66.0622 22.6314 66.3514 22.6314 66.3514C22.6314 66.3514 22.3422 66.6405 22.0531 66.6405C21.764 66.6405 21.764 66.6405 21.4749 66.6405H20.3184V63.4595ZM21.1857 64.0378V66.3514H21.764C22.0531 66.3514 22.0531 66.3514 22.0531 66.3514H22.3422C22.3422 66.3514 22.3422 66.0622 22.6314 66.0622C22.6314 65.773 22.6314 65.773 22.6314 65.4838C22.6314 65.1946 22.6314 64.9054 22.6314 64.9054C22.6314 64.9054 22.6314 64.6162 22.3422 64.6162C22.3422 64.6162 22.0531 64.6162 22.0531 64.327C22.0531 64.327 21.764 64.327 21.4749 64.327H21.1857V64.0378Z" fill="white"/>
</g>
<g id="Group_27">
<path id="Vector_22" d="M23.791 66.9302V63.46H24.9475L25.5258 65.7735L26.104 63.46H27.2605V66.9302H26.6823V64.3275L26.104 66.9302H25.5258L24.9475 64.3275V66.9302H23.791Z" fill="white"/>
</g>
<g id="Group_28">
<path id="Vector_23" d="M27.8379 66.9302V63.46H28.4161V66.9302H27.8379Z" fill="white"/>
</g>
<g id="Group_29">
<path id="Vector_24" d="M29.2832 66.9297V63.4595H29.8615L31.3071 65.773V63.4595H31.8853V66.9297H31.3071L29.8615 64.6162V66.9297H29.2832Z" fill="white"/>
</g>
<g id="Group_30">
<path id="Vector_25" d="M32.752 66.9297V63.4595H33.3302V66.9297H32.752Z" fill="white"/>
</g>
<g id="Group_31">
<path id="Vector_26" d="M33.9083 65.7738H34.4865C34.4865 66.063 34.4865 66.063 34.7756 66.3522C34.7756 66.3522 35.0648 66.6414 35.3539 66.6414C35.643 66.6414 35.643 66.6414 35.9322 66.6414L36.2213 66.3522V66.063C36.2213 66.063 36.2213 66.063 35.9322 65.7738C35.9322 65.7738 35.643 65.7738 35.3539 65.4846C35.0648 65.4846 34.7757 65.1955 34.4865 65.1955C34.1974 64.9063 34.1974 64.9063 34.1974 64.6171C34.1974 64.3279 34.1974 64.3279 34.4865 64.0387C34.4865 63.7495 34.7756 63.7495 34.7756 63.7495C35.0648 63.7495 35.0648 63.7495 35.3539 63.7495C35.643 63.7495 36.2213 63.7495 36.2213 64.0387C36.5104 64.3279 36.5104 64.3279 36.5104 64.9063H35.9322C35.9322 64.6171 35.9321 64.6171 35.643 64.6171C35.643 64.6171 35.3539 64.6171 35.0648 64.6171C34.7756 64.6171 34.7757 64.6171 34.4865 64.6171C34.4865 64.6171 34.4865 64.6171 34.4865 64.9063V65.1955C34.4865 65.1955 34.7756 65.4846 35.0648 65.4846C35.3539 65.4846 35.643 65.7738 35.9322 65.7738C36.2213 65.7738 36.2213 66.063 36.2213 66.063C36.2213 66.063 36.2213 66.3522 36.2213 66.6414C36.2213 66.9306 36.2213 66.9306 35.9322 67.2198C35.9322 67.509 35.643 67.509 35.3539 67.509C35.0648 67.509 34.7757 67.509 34.4865 67.509C33.9083 67.509 33.6191 67.509 33.6191 67.2198C33.6191 66.9306 33.9083 66.063 33.9083 65.7738Z" fill="white"/>
</g>
<g id="Group_32">
<path id="Vector_27" d="M37.9573 66.9302V64.0383H36.8008V63.46H39.692V64.0383H38.5355V66.9302H37.9573Z" fill="white"/>
</g>
<g id="Group_33">
<path id="Vector_28" d="M40.2715 66.9297V63.4595H41.7171C42.0062 63.4595 42.2954 63.4595 42.5845 63.4595C42.8736 63.4595 42.8736 63.7487 42.8736 63.7487C42.8736 64.0378 43.1627 64.0378 43.1627 64.327C43.1627 64.6162 43.1627 64.9054 42.8736 64.9054C42.5845 65.1946 42.5845 65.1946 42.2954 65.1946C42.5845 65.1946 42.5845 65.4838 42.5845 65.4838C42.5845 65.4838 42.8736 65.773 42.8736 66.0622L43.1627 66.6405H42.2954L41.7171 65.773C41.428 65.4838 41.428 65.4838 41.428 65.1946C41.428 65.1946 41.428 65.1946 41.1389 65.1946H40.8497V66.6405H40.2715V66.9297ZM40.8497 64.9054H41.428C41.7171 64.9054 42.0062 64.9054 42.0062 64.9054H42.2954V64.6162V64.327H42.0062C42.0062 64.327 41.7171 64.327 41.428 64.327H40.8497V64.9054Z" fill="white"/>
</g>
<g id="Group_34">
<path id="Vector_29" d="M46.9207 66.9302H46.0533L45.7642 66.0627H44.3185L44.0294 66.9302H43.4512L44.8968 63.46H45.7642L46.9207 66.9302ZM45.4751 65.4843L44.8968 64.3275L44.3185 65.4843H45.4751Z" fill="white"/>
</g>
<g id="Group_35">
<path id="Vector_30" d="M47.7893 66.9302V64.0383H46.6328V63.46H49.5241V64.0383H48.3676V66.9302H47.7893Z" fill="white"/>
</g>
<g id="Group_36">
<path id="Vector_31" d="M49.8105 66.9297V63.4595H50.3888V66.9297H49.8105Z" fill="white"/>
</g>
<g id="Group_37">
<path id="Vector_32" d="M50.9668 65.1951C50.9668 64.9059 50.9668 64.6167 51.2559 64.3275C51.2559 64.0383 51.545 64.0383 51.545 63.7491C51.545 63.7491 51.8342 63.46 52.1233 63.46C52.4124 63.46 52.7016 63.46 52.9907 63.46C53.5689 63.46 53.8581 63.7491 54.1472 64.0383C54.4363 64.3275 54.7254 64.9059 54.7254 65.1951C54.7254 65.7735 54.4363 66.0627 54.1472 66.3518C53.8581 66.641 53.5689 66.9302 52.9907 66.9302C52.4124 66.9302 52.1233 66.641 51.8342 66.3518C51.2559 66.0627 50.9668 65.7735 50.9668 65.1951ZM51.8342 65.1951C51.8342 65.4843 51.8342 65.7735 52.1233 66.0627C52.4124 66.3518 52.4124 66.3518 52.7016 66.3518C52.9907 66.3518 53.2798 66.3518 53.2798 66.0627C53.5689 65.7735 53.5689 65.4843 53.5689 65.1951C53.5689 64.9059 53.5689 64.6167 53.2798 64.3275C52.9907 64.0383 52.9907 64.0383 52.7016 64.0383C52.4124 64.0383 52.1233 64.0383 52.1233 64.3275C51.8342 64.6167 51.8342 64.9059 51.8342 65.1951Z" fill="white"/>
</g>
<g id="Group_38">
<path id="Vector_33" d="M55.0176 66.9302V63.46H55.5958L57.0415 65.7735V63.46H57.6197V66.9302H57.0415L55.5958 64.6167V66.9302H55.0176Z" fill="white"/>
</g>
</g>
</g>
</g>
</g>
</svg>
